<svg width="1024" height="753" viewBox="0 0 1024 753" fill="none" xmlns="http://www.w3.org/2000/svg">
<g clip-path="url(#clip0_122_130)">
<rect width="1024" height="753" fill="#121214"/>
<g opacity="0.2" filter="url(#filter0_f_122_130)">
<ellipse cx="512" cy="231.458" rx="512" ry="231.458" fill="#35875D"/>
</g>
<path d="M145.876 387.526C147.018 387.526 147.882 387.943 148.469 388.777C149.067 389.602 149.366 390.802 149.366 392.378C149.366 393.954 149.067 395.158 148.469 395.992C147.882 396.826 147.018 397.243 145.876 397.243C144.745 397.243 143.88 396.826 143.283 395.992C142.685 395.158 142.386 393.954 142.386 392.378C142.386 390.811 142.685 389.611 143.283 388.777C143.88 387.943 144.745 387.526 145.876 387.526ZM143.523 392.378C143.523 393.495 143.64 394.37 143.875 395.003L147.429 388.914C147.055 388.484 146.538 388.268 145.876 388.268C145.14 388.268 144.563 388.607 144.147 389.285C143.731 389.954 143.523 390.985 143.523 392.378ZM145.876 396.487C146.623 396.487 147.205 396.153 147.621 395.484C148.037 394.806 148.245 393.77 148.245 392.378C148.245 391.196 148.112 390.28 147.845 389.629L144.291 395.772C144.676 396.249 145.204 396.487 145.876 396.487Z" fill="url(#paint0_linear_122_130)" fill-opacity="0.6"/>
<path d="M146.836 412.084H149.19V412.812H143.091V412.084H145.812V404.36L143.219 405.693L142.771 405.075L145.972 403.37H146.836V412.084Z" fill="url(#paint1_linear_122_130)" fill-opacity="0.6"/>
<path d="M145.876 418.94C147.018 418.94 147.882 419.357 148.469 420.19C149.067 421.015 149.366 422.215 149.366 423.791C149.366 425.367 149.067 426.572 148.469 427.406C147.882 428.239 147.018 428.656 145.876 428.656C144.745 428.656 143.88 428.239 143.283 427.406C142.685 426.572 142.386 425.367 142.386 423.791C142.386 422.224 142.685 421.024 143.283 420.19C143.88 419.357 144.745 418.94 145.876 418.94ZM143.523 423.791C143.523 424.909 143.64 425.784 143.875 426.416L147.429 420.328C147.055 419.897 146.538 419.682 145.876 419.682C145.14 419.682 144.563 420.021 144.147 420.699C143.731 421.368 143.523 422.399 143.523 423.791ZM145.876 427.9C146.623 427.9 147.205 427.566 147.621 426.897C148.037 426.219 148.245 425.184 148.245 423.791C148.245 422.609 148.112 421.693 147.845 421.043L144.291 427.186C144.676 427.662 145.204 427.9 145.876 427.9Z" fill="url(#paint2_linear_122_130)" fill-opacity="0.6"/>
<path d="M146.836 443.497H149.19V444.226H143.091V443.497H145.812V435.773L143.219 437.107L142.771 436.488L145.972 434.784H146.836V443.497Z" fill="url(#paint3_linear_122_130)" fill-opacity="0.6"/>
<path d="M146.836 459.204H149.19V459.932H143.091V459.204H145.812V451.48L143.219 452.813L142.771 452.195L145.972 450.491H146.836V459.204Z" fill="url(#paint4_linear_122_130)" fill-opacity="0.6"/>
<path d="M145.876 466.06C147.018 466.06 147.882 466.477 148.469 467.311C149.067 468.135 149.366 469.336 149.366 470.911C149.366 472.487 149.067 473.692 148.469 474.526C147.882 475.36 147.018 475.777 145.876 475.777C144.745 475.777 143.88 475.36 143.283 474.526C142.685 473.692 142.386 472.487 142.386 470.911C142.386 469.345 142.685 468.144 143.283 467.311C143.88 466.477 144.745 466.06 145.876 466.06ZM143.523 470.911C143.523 472.029 143.64 472.904 143.875 473.536L147.429 467.448C147.055 467.017 146.538 466.802 145.876 466.802C145.14 466.802 144.563 467.141 144.147 467.819C143.731 468.488 143.523 469.519 143.523 470.911ZM145.876 475.021C146.623 475.021 147.205 474.686 147.621 474.017C148.037 473.339 148.245 472.304 148.245 470.911C148.245 469.73 148.112 468.813 147.845 468.163L144.291 474.306C144.676 474.783 145.204 475.021 145.876 475.021Z" fill="url(#paint5_linear_122_130)" fill-opacity="0.6"/>
<path d="M146.836 490.618H149.19V491.346H143.091V490.618H145.812V482.894L143.219 484.227L142.771 483.608L145.972 481.904H146.836V490.618Z" fill="url(#paint6_linear_122_130)" fill-opacity="0.6"/>
<path d="M145.876 497.474C147.018 497.474 147.882 497.89 148.469 498.724C149.067 499.549 149.366 500.749 149.366 502.325C149.366 503.901 149.067 505.106 148.469 505.939C147.882 506.773 147.018 507.19 145.876 507.19C144.745 507.19 143.88 506.773 143.283 505.939C142.685 505.106 142.386 503.901 142.386 502.325C142.386 500.758 142.685 499.558 143.283 498.724C143.88 497.89 144.745 497.474 145.876 497.474ZM143.523 502.325C143.523 503.443 143.64 504.318 143.875 504.95L147.429 498.862C147.055 498.431 146.538 498.216 145.876 498.216C145.14 498.216 144.563 498.555 144.147 499.233C143.731 499.902 143.523 500.932 143.523 502.325ZM145.876 506.434C146.623 506.434 147.205 506.1 147.621 505.431C148.037 504.753 148.245 503.718 148.245 502.325C148.245 501.143 148.112 500.227 147.845 499.576L144.291 505.72C144.676 506.196 145.204 506.434 145.876 506.434Z" fill="url(#paint7_linear_122_130)" fill-opacity="0.6"/>
<path d="M145.876 513.18C147.018 513.18 147.882 513.597 148.469 514.431C149.067 515.256 149.366 516.456 149.366 518.032C149.366 519.608 149.067 520.812 148.469 521.646C147.882 522.48 147.018 522.897 145.876 522.897C144.745 522.897 143.88 522.48 143.283 521.646C142.685 520.812 142.386 519.608 142.386 518.032C142.386 516.465 142.685 515.265 143.283 514.431C143.88 513.597 144.745 513.18 145.876 513.18ZM143.523 518.032C143.523 519.15 143.64 520.025 143.875 520.657L147.429 514.568C147.055 514.138 146.538 513.922 145.876 513.922C145.14 513.922 144.563 514.261 144.147 514.939C143.731 515.608 143.523 516.639 143.523 518.032ZM145.876 522.141C146.623 522.141 147.205 521.807 147.621 521.138C148.037 520.46 148.245 519.424 148.245 518.032C148.245 516.85 148.112 515.934 147.845 515.283L144.291 521.426C144.676 521.903 145.204 522.141 145.876 522.141Z" fill="url(#paint8_linear_122_130)" fill-opacity="0.6"/>
<path d="M146.836 537.738H149.19V538.466H143.091V537.738H145.812V530.014L143.219 531.347L142.771 530.729L145.972 529.024H146.836V537.738Z" fill="url(#paint9_linear_122_130)" fill-opacity="0.6"/>
<path d="M145.876 544.594C147.018 544.594 147.882 545.011 148.469 545.844C149.067 546.669 149.366 547.869 149.366 549.445C149.366 551.021 149.067 552.226 148.469 553.06C147.882 553.894 147.018 554.31 145.876 554.31C144.745 554.31 143.88 553.894 143.283 553.06C142.685 552.226 142.386 551.021 142.386 549.445C142.386 547.878 142.685 546.678 143.283 545.844C143.88 545.011 144.745 544.594 145.876 544.594ZM143.523 549.445C143.523 550.563 143.64 551.438 143.875 552.07L147.429 545.982C147.055 545.551 146.538 545.336 145.876 545.336C145.14 545.336 144.563 545.675 144.147 546.353C143.731 547.022 143.523 548.053 143.523 549.445ZM145.876 553.555C146.623 553.555 147.205 553.22 147.621 552.551C148.037 551.873 148.245 550.838 148.245 549.445C148.245 548.263 148.112 547.347 147.845 546.697L144.291 552.84C144.676 553.316 145.204 553.555 145.876 553.555Z" fill="url(#paint10_linear_122_130)" fill-opacity="0.6"/>
<path d="M146.836 569.151H149.19V569.88H143.091V569.151H145.812V561.428L143.219 562.761L142.771 562.142L145.972 560.438H146.836V569.151Z" fill="url(#paint11_linear_122_130)" fill-opacity="0.6"/>
<path d="M146.836 584.858H149.19V585.586H143.091V584.858H145.812V577.134L143.219 578.467L142.771 577.849L145.972 576.145H146.836V584.858Z" fill="url(#paint12_linear_122_130)" fill-opacity="0.6"/>
<path d="M175.603 418.94C176.745 418.94 177.61 419.357 178.197 420.19C178.794 421.015 179.093 422.215 179.093 423.791C179.093 425.367 178.794 426.572 178.197 427.406C177.61 428.239 176.745 428.656 175.603 428.656C174.472 428.656 173.608 428.239 173.01 427.406C172.413 426.572 172.114 425.367 172.114 423.791C172.114 422.224 172.413 421.024 173.01 420.19C173.608 419.357 174.472 418.94 175.603 418.94ZM173.25 423.791C173.25 424.909 173.368 425.784 173.603 426.416L177.156 420.328C176.783 419.897 176.265 419.682 175.603 419.682C174.867 419.682 174.291 420.021 173.875 420.699C173.459 421.368 173.25 422.399 173.25 423.791ZM175.603 427.9C176.35 427.9 176.932 427.566 177.348 426.897C177.764 426.219 177.973 425.184 177.973 423.791C177.973 422.609 177.839 421.693 177.572 421.043L174.019 427.186C174.403 427.662 174.931 427.9 175.603 427.9Z" fill="url(#paint13_linear_122_130)" fill-opacity="0.6"/>
<path d="M176.564 443.497H178.917V444.226H172.818V443.497H175.539V435.773L172.946 437.107L172.498 436.488L175.7 434.784H176.564V443.497Z" fill="url(#paint14_linear_122_130)" fill-opacity="0.6"/>
<path d="M175.603 450.353C176.745 450.353 177.61 450.77 178.197 451.604C178.794 452.429 179.093 453.629 179.093 455.205C179.093 456.781 178.794 457.985 178.197 458.819C177.61 459.653 176.745 460.07 175.603 460.07C174.472 460.07 173.608 459.653 173.01 458.819C172.413 457.985 172.114 456.781 172.114 455.205C172.114 453.638 172.413 452.438 173.01 451.604C173.608 450.77 174.472 450.353 175.603 450.353ZM173.25 455.205C173.25 456.322 173.368 457.197 173.603 457.83L177.156 451.741C176.783 451.311 176.265 451.095 175.603 451.095C174.867 451.095 174.291 451.434 173.875 452.112C173.459 452.781 173.25 453.812 173.25 455.205ZM175.603 459.314C176.35 459.314 176.932 458.98 177.348 458.311C177.764 457.633 177.973 456.597 177.973 455.205C177.973 454.023 177.839 453.107 177.572 452.456L174.019 458.599C174.403 459.076 174.931 459.314 175.603 459.314Z" fill="url(#paint15_linear_122_130)" fill-opacity="0.6"/>
<path d="M175.603 466.06C176.745 466.06 177.61 466.477 178.197 467.311C178.794 468.135 179.093 469.336 179.093 470.911C179.093 472.487 178.794 473.692 178.197 474.526C177.61 475.36 176.745 475.777 175.603 475.777C174.472 475.777 173.608 475.36 173.01 474.526C172.413 473.692 172.114 472.487 172.114 470.911C172.114 469.345 172.413 468.144 173.01 467.311C173.608 466.477 174.472 466.06 175.603 466.06ZM173.25 470.911C173.25 472.029 173.368 472.904 173.603 473.536L177.156 467.448C176.783 467.017 176.265 466.802 175.603 466.802C174.867 466.802 174.291 467.141 173.875 467.819C173.459 468.488 173.25 469.519 173.25 470.911ZM175.603 475.021C176.35 475.021 176.932 474.686 177.348 474.017C177.764 473.339 177.973 472.304 177.973 470.911C177.973 469.73 177.839 468.813 177.572 468.163L174.019 474.306C174.403 474.783 174.931 475.021 175.603 475.021Z" fill="url(#paint16_linear_122_130)" fill-opacity="0.6"/>
<path d="M176.564 490.618H178.917V491.346H172.818V490.618H175.539V482.894L172.946 484.227L172.498 483.608L175.7 481.904H176.564V490.618Z" fill="url(#paint17_linear_122_130)" fill-opacity="0.6"/>
<path d="M175.603 497.474C176.745 497.474 177.61 497.89 178.197 498.724C178.794 499.549 179.093 500.749 179.093 502.325C179.093 503.901 178.794 505.106 178.197 505.939C177.61 506.773 176.745 507.19 175.603 507.19C174.472 507.19 173.608 506.773 173.01 505.939C172.413 505.106 172.114 503.901 172.114 502.325C172.114 500.758 172.413 499.558 173.01 498.724C173.608 497.89 174.472 497.474 175.603 497.474ZM173.25 502.325C173.25 503.443 173.368 504.318 173.603 504.95L177.156 498.862C176.783 498.431 176.265 498.216 175.603 498.216C174.867 498.216 174.291 498.555 173.875 499.233C173.459 499.902 173.25 500.932 173.25 502.325ZM175.603 506.434C176.35 506.434 176.932 506.1 177.348 505.431C177.764 504.753 177.973 503.718 177.973 502.325C177.973 501.143 177.839 500.227 177.572 499.576L174.019 505.72C174.403 506.196 174.931 506.434 175.603 506.434Z" fill="url(#paint18_linear_122_130)" fill-opacity="0.6"/>
<path d="M176.564 522.031H178.917V522.759H172.818V522.031H175.539V514.307L172.946 515.64L172.498 515.022L175.7 513.318H176.564V522.031Z" fill="url(#paint19_linear_122_130)" fill-opacity="0.6"/>
<path d="M175.603 528.887C176.745 528.887 177.61 529.304 178.197 530.138C178.794 530.962 179.093 532.163 179.093 533.738C179.093 535.314 178.794 536.519 178.197 537.353C177.61 538.187 176.745 538.604 175.603 538.604C174.472 538.604 173.608 538.187 173.01 537.353C172.413 536.519 172.114 535.314 172.114 533.738C172.114 532.172 172.413 530.971 173.01 530.138C173.608 529.304 174.472 528.887 175.603 528.887ZM173.25 533.738C173.25 534.856 173.368 535.731 173.603 536.363L177.156 530.275C176.783 529.845 176.265 529.629 175.603 529.629C174.867 529.629 174.291 529.968 173.875 530.646C173.459 531.315 173.25 532.346 173.25 533.738ZM175.603 537.848C176.35 537.848 176.932 537.513 177.348 536.844C177.764 536.166 177.973 535.131 177.973 533.738C177.973 532.557 177.839 531.64 177.572 530.99L174.019 537.133C174.403 537.61 174.931 537.848 175.603 537.848Z" fill="url(#paint20_linear_122_130)" fill-opacity="0.6"/>
<path d="M175.603 544.594C176.745 544.594 177.61 545.011 178.197 545.844C178.794 546.669 179.093 547.869 179.093 549.445C179.093 551.021 178.794 552.226 178.197 553.06C177.61 553.894 176.745 554.31 175.603 554.31C174.472 554.31 173.608 553.894 173.01 553.06C172.413 552.226 172.114 551.021 172.114 549.445C172.114 547.878 172.413 546.678 173.01 545.844C173.608 545.011 174.472 544.594 175.603 544.594ZM173.25 549.445C173.25 550.563 173.368 551.438 173.603 552.07L177.156 545.982C176.783 545.551 176.265 545.336 175.603 545.336C174.867 545.336 174.291 545.675 173.875 546.353C173.459 547.022 173.25 548.053 173.25 549.445ZM175.603 553.555C176.35 553.555 176.932 553.22 177.348 552.551C177.764 551.873 177.973 550.838 177.973 549.445C177.973 548.263 177.839 547.347 177.572 546.697L174.019 552.84C174.403 553.316 174.931 553.555 175.603 553.555Z" fill="url(#paint21_linear_122_130)" fill-opacity="0.6"/>
<path d="M176.564 569.151H178.917V569.88H172.818V569.151H175.539V561.428L172.946 562.761L172.498 562.142L175.7 560.438H176.564V569.151Z" fill="url(#paint22_linear_122_130)" fill-opacity="0.6"/>
<path d="M175.603 576.007C176.745 576.007 177.61 576.424 178.197 577.258C178.794 578.083 179.093 579.283 179.093 580.859C179.093 582.435 178.794 583.639 178.197 584.473C177.61 585.307 176.745 585.724 175.603 585.724C174.472 585.724 173.608 585.307 173.01 584.473C172.413 583.639 172.114 582.435 172.114 580.859C172.114 579.292 172.413 578.092 173.01 577.258C173.608 576.424 174.472 576.007 175.603 576.007ZM173.25 580.859C173.25 581.977 173.368 582.852 173.603 583.484L177.156 577.395C176.783 576.965 176.265 576.749 175.603 576.749C174.867 576.749 174.291 577.088 173.875 577.766C173.459 578.435 173.25 579.466 173.25 580.859ZM175.603 584.968C176.35 584.968 176.932 584.634 177.348 583.965C177.764 583.287 177.973 582.251 177.973 580.859C177.973 579.677 177.839 578.761 177.572 578.11L174.019 584.253C174.403 584.73 174.931 584.968 175.603 584.968Z" fill="url(#paint23_linear_122_130)" fill-opacity="0.6"/>
<path d="M176.564 600.565H178.917V601.293H172.818V600.565H175.539V592.841L172.946 594.174L172.498 593.556L175.7 591.852H176.564V600.565Z" fill="url(#paint24_linear_122_130)" fill-opacity="0.6"/>
<path d="M176.564 616.272H178.917V617H172.818V616.272H175.539V608.548L172.946 609.881L172.498 609.262L175.7 607.558H176.564V616.272Z" fill="url(#paint25_linear_122_130)" fill-opacity="0.6"/>
<path d="M131.012 434.647C132.154 434.647 133.019 435.063 133.605 435.897C134.203 436.722 134.502 437.922 134.502 439.498C134.502 441.074 134.203 442.279 133.605 443.112C133.019 443.946 132.154 444.363 131.012 444.363C129.881 444.363 129.017 443.946 128.419 443.112C127.822 442.279 127.523 441.074 127.523 439.498C127.523 437.931 127.822 436.731 128.419 435.897C129.017 435.063 129.881 434.647 131.012 434.647ZM128.659 439.498C128.659 440.616 128.777 441.491 129.011 442.123L132.565 436.035C132.192 435.604 131.674 435.389 131.012 435.389C130.276 435.389 129.7 435.728 129.284 436.406C128.867 437.075 128.659 438.105 128.659 439.498ZM131.012 443.607C131.759 443.607 132.341 443.273 132.757 442.604C133.173 441.926 133.381 440.891 133.381 439.498C133.381 438.316 133.248 437.4 132.981 436.749L129.428 442.893C129.812 443.369 130.34 443.607 131.012 443.607Z" fill="url(#paint26_linear_122_130)" fill-opacity="0.6"/>
<path d="M131.012 450.353C132.154 450.353 133.019 450.77 133.605 451.604C134.203 452.429 134.502 453.629 134.502 455.205C134.502 456.781 134.203 457.985 133.605 458.819C133.019 459.653 132.154 460.07 131.012 460.07C129.881 460.07 129.017 459.653 128.419 458.819C127.822 457.985 127.523 456.781 127.523 455.205C127.523 453.638 127.822 452.438 128.419 451.604C129.017 450.77 129.881 450.353 131.012 450.353ZM128.659 455.205C128.659 456.322 128.777 457.197 129.011 457.83L132.565 451.741C132.192 451.311 131.674 451.095 131.012 451.095C130.276 451.095 129.7 451.434 129.284 452.112C128.867 452.781 128.659 453.812 128.659 455.205ZM131.012 459.314C131.759 459.314 132.341 458.98 132.757 458.311C133.173 457.633 133.381 456.597 133.381 455.205C133.381 454.023 133.248 453.107 132.981 452.456L129.428 458.599C129.812 459.076 130.34 459.314 131.012 459.314Z" fill="url(#paint27_linear_122_130)" fill-opacity="0.6"/>
<path d="M131.973 474.911H134.326V475.639H128.227V474.911H130.948V467.187L128.355 468.52L127.907 467.902L131.108 466.197H131.973V474.911Z" fill="url(#paint28_linear_122_130)" fill-opacity="0.6"/>
<path d="M131.012 481.767C132.154 481.767 133.019 482.184 133.605 483.017C134.203 483.842 134.502 485.042 134.502 486.618C134.502 488.194 134.203 489.399 133.605 490.233C133.019 491.066 132.154 491.483 131.012 491.483C129.881 491.483 129.017 491.066 128.419 490.233C127.822 489.399 127.523 488.194 127.523 486.618C127.523 485.051 127.822 483.851 128.419 483.017C129.017 482.184 129.881 481.767 131.012 481.767ZM128.659 486.618C128.659 487.736 128.777 488.611 129.011 489.243L132.565 483.155C132.192 482.724 131.674 482.509 131.012 482.509C130.276 482.509 129.7 482.848 129.284 483.526C128.867 484.195 128.659 485.226 128.659 486.618ZM131.012 490.727C131.759 490.727 132.341 490.393 132.757 489.724C133.173 489.046 133.381 488.011 133.381 486.618C133.381 485.436 133.248 484.52 132.981 483.87L129.428 490.013C129.812 490.489 130.34 490.727 131.012 490.727Z" fill="url(#paint29_linear_122_130)" fill-opacity="0.6"/>
<path d="M131.973 506.324H134.326V507.053H128.227V506.324H130.948V498.601L128.355 499.934L127.907 499.315L131.108 497.611H131.973V506.324Z" fill="url(#paint30_linear_122_130)" fill-opacity="0.6"/>
<path d="M131.973 522.031H134.326V522.759H128.227V522.031H130.948V514.307L128.355 515.64L127.907 515.022L131.108 513.318H131.973V522.031Z" fill="url(#paint31_linear_122_130)" fill-opacity="0.6"/>
<path d="M161.7 412.084H164.053V412.812H157.955V412.084H160.676V404.36L158.083 405.693L157.634 405.075L160.836 403.37H161.7V412.084Z" fill="url(#paint32_linear_122_130)" fill-opacity="0.6"/>
<path d="M160.74 418.94C161.882 418.94 162.746 419.357 163.333 420.19C163.931 421.015 164.229 422.215 164.229 423.791C164.229 425.367 163.931 426.572 163.333 427.406C162.746 428.239 161.882 428.656 160.74 428.656C159.609 428.656 158.744 428.239 158.147 427.406C157.549 426.572 157.25 425.367 157.25 423.791C157.25 422.224 157.549 421.024 158.147 420.19C158.744 419.357 159.609 418.94 160.74 418.94ZM158.387 423.791C158.387 424.909 158.504 425.784 158.739 426.416L162.292 420.328C161.919 419.897 161.401 419.682 160.74 419.682C160.003 419.682 159.427 420.021 159.011 420.699C158.595 421.368 158.387 422.399 158.387 423.791ZM160.74 427.9C161.487 427.9 162.068 427.566 162.485 426.897C162.901 426.219 163.109 425.184 163.109 423.791C163.109 422.609 162.975 421.693 162.709 421.043L159.155 427.186C159.539 427.662 160.067 427.9 160.74 427.9Z" fill="url(#paint33_linear_122_130)" fill-opacity="0.6"/>
<path d="M161.7 443.497H164.053V444.226H157.955V443.497H160.676V435.773L158.083 437.107L157.634 436.488L160.836 434.784H161.7V443.497Z" fill="url(#paint34_linear_122_130)" fill-opacity="0.6"/>
<path d="M161.7 459.204H164.053V459.932H157.955V459.204H160.676V451.48L158.083 452.813L157.634 452.195L160.836 450.491H161.7V459.204Z" fill="url(#paint35_linear_122_130)" fill-opacity="0.6"/>
<path d="M160.74 466.06C161.882 466.06 162.746 466.477 163.333 467.311C163.931 468.135 164.229 469.336 164.229 470.911C164.229 472.487 163.931 473.692 163.333 474.526C162.746 475.36 161.882 475.777 160.74 475.777C159.609 475.777 158.744 475.36 158.147 474.526C157.549 473.692 157.25 472.487 157.25 470.911C157.25 469.345 157.549 468.144 158.147 467.311C158.744 466.477 159.609 466.06 160.74 466.06ZM158.387 470.911C158.387 472.029 158.504 472.904 158.739 473.536L162.292 467.448C161.919 467.017 161.401 466.802 160.74 466.802C160.003 466.802 159.427 467.141 159.011 467.819C158.595 468.488 158.387 469.519 158.387 470.911ZM160.74 475.021C161.487 475.021 162.068 474.686 162.485 474.017C162.901 473.339 163.109 472.304 163.109 470.911C163.109 469.73 162.975 468.813 162.709 468.163L159.155 474.306C159.539 474.783 160.067 475.021 160.74 475.021Z" fill="url(#paint36_linear_122_130)" fill-opacity="0.6"/>
<path d="M161.7 490.618H164.053V491.346H157.955V490.618H160.676V482.894L158.083 484.227L157.634 483.608L160.836 481.904H161.7V490.618Z" fill="url(#paint37_linear_122_130)" fill-opacity="0.6"/>
<path d="M161.7 506.324H164.053V507.053H157.955V506.324H160.676V498.601L158.083 499.934L157.634 499.315L160.836 497.611H161.7V506.324Z" fill="url(#paint38_linear_122_130)" fill-opacity="0.6"/>
<path d="M160.74 513.18C161.882 513.18 162.746 513.597 163.333 514.431C163.931 515.256 164.229 516.456 164.229 518.032C164.229 519.608 163.931 520.812 163.333 521.646C162.746 522.48 161.882 522.897 160.74 522.897C159.609 522.897 158.744 522.48 158.147 521.646C157.549 520.812 157.25 519.608 157.25 518.032C157.25 516.465 157.549 515.265 158.147 514.431C158.744 513.597 159.609 513.18 160.74 513.18ZM158.387 518.032C158.387 519.15 158.504 520.025 158.739 520.657L162.292 514.568C161.919 514.138 161.401 513.922 160.74 513.922C160.003 513.922 159.427 514.261 159.011 514.939C158.595 515.608 158.387 516.639 158.387 518.032ZM160.74 522.141C161.487 522.141 162.068 521.807 162.485 521.138C162.901 520.46 163.109 519.424 163.109 518.032C163.109 516.85 162.975 515.934 162.709 515.283L159.155 521.426C159.539 521.903 160.067 522.141 160.74 522.141Z" fill="url(#paint39_linear_122_130)" fill-opacity="0.6"/>
<path d="M161.7 537.738H164.053V538.466H157.955V537.738H160.676V530.014L158.083 531.347L157.634 530.729L160.836 529.024H161.7V537.738Z" fill="url(#paint40_linear_122_130)" fill-opacity="0.6"/>
<path d="M160.74 544.594C161.882 544.594 162.746 545.011 163.333 545.844C163.931 546.669 164.229 547.869 164.229 549.445C164.229 551.021 163.931 552.226 163.333 553.06C162.746 553.894 161.882 554.31 160.74 554.31C159.609 554.31 158.744 553.894 158.147 553.06C157.549 552.226 157.25 551.021 157.25 549.445C157.25 547.878 157.549 546.678 158.147 545.844C158.744 545.011 159.609 544.594 160.74 544.594ZM158.387 549.445C158.387 550.563 158.504 551.438 158.739 552.07L162.292 545.982C161.919 545.551 161.401 545.336 160.74 545.336C160.003 545.336 159.427 545.675 159.011 546.353C158.595 547.022 158.387 548.053 158.387 549.445ZM160.74 553.555C161.487 553.555 162.068 553.22 162.485 552.551C162.901 551.873 163.109 550.838 163.109 549.445C163.109 548.263 162.975 547.347 162.709 546.697L159.155 552.84C159.539 553.316 160.067 553.555 160.74 553.555Z" fill="url(#paint41_linear_122_130)" fill-opacity="0.6"/>
<path d="M190.467 403.233C191.609 403.233 192.473 403.65 193.06 404.484C193.658 405.308 193.957 406.509 193.957 408.084C193.957 409.66 193.658 410.865 193.06 411.699C192.473 412.533 191.609 412.95 190.467 412.95C189.336 412.95 188.472 412.533 187.874 411.699C187.276 410.865 186.978 409.66 186.978 408.084C186.978 406.518 187.276 405.317 187.874 404.484C188.472 403.65 189.336 403.233 190.467 403.233ZM188.114 408.084C188.114 409.202 188.232 410.077 188.466 410.709L192.02 404.621C191.646 404.19 191.129 403.975 190.467 403.975C189.731 403.975 189.155 404.314 188.738 404.992C188.322 405.661 188.114 406.692 188.114 408.084ZM190.467 412.194C191.214 412.194 191.796 411.859 192.212 411.19C192.628 410.512 192.836 409.477 192.836 408.084C192.836 406.902 192.703 405.986 192.436 405.336L188.883 411.479C189.267 411.955 189.795 412.194 190.467 412.194Z" fill="url(#paint42_linear_122_130)" fill-opacity="0.6"/>
<path d="M191.428 427.791H193.781V428.519H187.682V427.791H190.403V420.067L187.81 421.4L187.362 420.781L190.563 419.077H191.428V427.791Z" fill="url(#paint43_linear_122_130)" fill-opacity="0.6"/>
<path d="M191.428 443.497H193.781V444.226H187.682V443.497H190.403V435.773L187.81 437.107L187.362 436.488L190.563 434.784H191.428V443.497Z" fill="url(#paint44_linear_122_130)" fill-opacity="0.6"/>
<path d="M190.467 450.353C191.609 450.353 192.473 450.77 193.06 451.604C193.658 452.429 193.957 453.629 193.957 455.205C193.957 456.781 193.658 457.985 193.06 458.819C192.473 459.653 191.609 460.07 190.467 460.07C189.336 460.07 188.472 459.653 187.874 458.819C187.276 457.985 186.978 456.781 186.978 455.205C186.978 453.638 187.276 452.438 187.874 451.604C188.472 450.77 189.336 450.353 190.467 450.353ZM188.114 455.205C188.114 456.322 188.232 457.197 188.466 457.83L192.02 451.741C191.646 451.311 191.129 451.095 190.467 451.095C189.731 451.095 189.155 451.434 188.738 452.112C188.322 452.781 188.114 453.812 188.114 455.205ZM190.467 459.314C191.214 459.314 191.796 458.98 192.212 458.311C192.628 457.633 192.836 456.597 192.836 455.205C192.836 454.023 192.703 453.107 192.436 452.456L188.883 458.599C189.267 459.076 189.795 459.314 190.467 459.314Z" fill="url(#paint45_linear_122_130)" fill-opacity="0.6"/>
<path d="M190.467 466.06C191.609 466.06 192.473 466.477 193.06 467.311C193.658 468.135 193.957 469.336 193.957 470.911C193.957 472.487 193.658 473.692 193.06 474.526C192.473 475.36 191.609 475.777 190.467 475.777C189.336 475.777 188.472 475.36 187.874 474.526C187.276 473.692 186.978 472.487 186.978 470.911C186.978 469.345 187.276 468.144 187.874 467.311C188.472 466.477 189.336 466.06 190.467 466.06ZM188.114 470.911C188.114 472.029 188.232 472.904 188.466 473.536L192.02 467.448C191.646 467.017 191.129 466.802 190.467 466.802C189.731 466.802 189.155 467.141 188.738 467.819C188.322 468.488 188.114 469.519 188.114 470.911ZM190.467 475.021C191.214 475.021 191.796 474.686 192.212 474.017C192.628 473.339 192.836 472.304 192.836 470.911C192.836 469.73 192.703 468.813 192.436 468.163L188.883 474.306C189.267 474.783 189.795 475.021 190.467 475.021Z" fill="url(#paint46_linear_122_130)" fill-opacity="0.6"/>
<g opacity="0.6">
<path d="M823.117 189.134C824.206 189.134 825.031 189.534 825.591 190.334C826.161 191.125 826.446 192.277 826.446 193.79C826.446 195.302 826.161 196.458 825.591 197.258C825.031 198.058 824.206 198.459 823.117 198.459C822.038 198.459 821.213 198.058 820.643 197.258C820.073 196.458 819.788 195.302 819.788 193.79C819.788 192.286 820.073 191.134 820.643 190.334C821.213 189.534 822.038 189.134 823.117 189.134ZM820.872 193.79C820.872 194.862 820.984 195.702 821.208 196.309L824.598 190.466C824.242 190.053 823.748 189.846 823.117 189.846C822.415 189.846 821.865 190.172 821.468 190.822C821.071 191.464 820.872 192.453 820.872 193.79ZM823.117 197.733C823.83 197.733 824.385 197.412 824.782 196.77C825.179 196.12 825.377 195.126 825.377 193.79C825.377 192.655 825.25 191.776 824.995 191.152L821.605 197.047C821.972 197.505 822.476 197.733 823.117 197.733Z" fill="url(#paint47_linear_122_130)"/>
<path d="M824.033 212.701H826.278V213.4H820.46V212.701H823.056V205.289L820.582 206.568L820.155 205.974L823.209 204.339H824.033V212.701Z" fill="url(#paint48_linear_122_130)"/>
<path d="M823.117 219.28C824.206 219.28 825.031 219.68 825.591 220.48C826.161 221.272 826.446 222.423 826.446 223.936C826.446 225.448 826.161 226.604 825.591 227.404C825.031 228.205 824.206 228.605 823.117 228.605C822.038 228.605 821.213 228.205 820.643 227.404C820.073 226.604 819.788 225.448 819.788 223.936C819.788 222.432 820.073 221.28 820.643 220.48C821.213 219.68 822.038 219.28 823.117 219.28ZM820.872 223.936C820.872 225.008 820.984 225.848 821.208 226.455L824.598 220.612C824.242 220.199 823.748 219.992 823.117 219.992C822.415 219.992 821.865 220.318 821.468 220.968C821.071 221.61 820.872 222.599 820.872 223.936ZM823.117 227.879C823.83 227.879 824.385 227.558 824.782 226.916C825.179 226.266 825.377 225.272 825.377 223.936C825.377 222.802 825.25 221.922 824.995 221.298L821.605 227.193C821.972 227.651 822.476 227.879 823.117 227.879Z" fill="url(#paint49_linear_122_130)"/>
<path d="M824.033 242.847H826.278V243.546H820.46V242.847H823.056V235.435L820.582 236.714L820.155 236.12L823.209 234.485H824.033V242.847Z" fill="url(#paint50_linear_122_130)"/>
<path d="M824.033 257.92H826.278V258.619H820.46V257.92H823.056V250.508L820.582 251.787L820.155 251.194L823.209 249.558H824.033V257.92Z" fill="url(#paint51_linear_122_130)"/>
<path d="M823.117 264.499C824.206 264.499 825.031 264.899 825.591 265.699C826.161 266.491 826.446 267.643 826.446 269.155C826.446 270.667 826.161 271.823 825.591 272.624C825.031 273.424 824.206 273.824 823.117 273.824C822.038 273.824 821.213 273.424 820.643 272.624C820.073 271.823 819.788 270.667 819.788 269.155C819.788 267.651 820.073 266.5 820.643 265.699C821.213 264.899 822.038 264.499 823.117 264.499ZM820.872 269.155C820.872 270.228 820.984 271.067 821.208 271.674L824.598 265.831C824.242 265.418 823.748 265.211 823.117 265.211C822.415 265.211 821.865 265.537 821.468 266.187C821.071 266.829 820.872 267.818 820.872 269.155ZM823.117 273.098C823.83 273.098 824.385 272.777 824.782 272.136C825.179 271.485 825.377 270.491 825.377 269.155C825.377 268.021 825.25 267.141 824.995 266.517L821.605 272.413C821.972 272.87 822.476 273.098 823.117 273.098Z" fill="url(#paint52_linear_122_130)"/>
<path d="M824.033 288.066H826.278V288.765H820.46V288.066H823.056V280.654L820.582 281.933L820.155 281.34L823.209 279.704H824.033V288.066Z" fill="url(#paint53_linear_122_130)"/>
<path d="M823.117 294.645C824.206 294.645 825.031 295.045 825.591 295.846C826.161 296.637 826.446 297.789 826.446 299.301C826.446 300.813 826.161 301.97 825.591 302.77C825.031 303.57 824.206 303.97 823.117 303.97C822.038 303.97 821.213 303.57 820.643 302.77C820.073 301.97 819.788 300.813 819.788 299.301C819.788 297.798 820.073 296.646 820.643 295.846C821.213 295.045 822.038 294.645 823.117 294.645ZM820.872 299.301C820.872 300.374 820.984 301.213 821.208 301.82L824.598 295.977C824.242 295.564 823.748 295.358 823.117 295.358C822.415 295.358 821.865 295.683 821.468 296.334C821.071 296.975 820.872 297.965 820.872 299.301ZM823.117 303.245C823.83 303.245 824.385 302.924 824.782 302.282C825.179 301.631 825.377 300.638 825.377 299.301C825.377 298.167 825.25 297.288 824.995 296.663L821.605 302.559C821.972 303.016 822.476 303.245 823.117 303.245Z" fill="url(#paint54_linear_122_130)"/>
<path d="M823.117 309.718C824.206 309.718 825.031 310.118 825.591 310.919C826.161 311.71 826.446 312.862 826.446 314.374C826.446 315.886 826.161 317.043 825.591 317.843C825.031 318.643 824.206 319.043 823.117 319.043C822.038 319.043 821.213 318.643 820.643 317.843C820.073 317.043 819.788 315.886 819.788 314.374C819.788 312.871 820.073 311.719 820.643 310.919C821.213 310.118 822.038 309.718 823.117 309.718ZM820.872 314.374C820.872 315.447 820.984 316.286 821.208 316.893L824.598 311.05C824.242 310.637 823.748 310.431 823.117 310.431C822.415 310.431 821.865 310.756 821.468 311.407C821.071 312.048 820.872 313.038 820.872 314.374ZM823.117 318.318C823.83 318.318 824.385 317.997 824.782 317.355C825.179 316.704 825.377 315.711 825.377 314.374C825.377 313.24 825.25 312.361 824.995 311.736L821.605 317.632C821.972 318.089 822.476 318.318 823.117 318.318Z" fill="url(#paint55_linear_122_130)"/>
<path d="M824.033 333.285H826.278V333.984H820.46V333.285H823.056V325.873L820.582 327.152L820.155 326.559L823.209 324.923H824.033V333.285Z" fill="url(#paint56_linear_122_130)"/>
<path d="M823.117 339.865C824.206 339.865 825.031 340.265 825.591 341.065C826.161 341.856 826.446 343.008 826.446 344.52C826.446 346.033 826.161 347.189 825.591 347.989C825.031 348.789 824.206 349.189 823.117 349.189C822.038 349.189 821.213 348.789 820.643 347.989C820.073 347.189 819.788 346.033 819.788 344.52C819.788 343.017 820.073 341.865 820.643 341.065C821.213 340.265 822.038 339.865 823.117 339.865ZM820.872 344.52C820.872 345.593 820.984 346.433 821.208 347.039L824.598 341.197C824.242 340.783 823.748 340.577 823.117 340.577C822.415 340.577 821.865 340.902 821.468 341.553C821.071 342.195 820.872 343.184 820.872 344.52ZM823.117 348.464C823.83 348.464 824.385 348.143 824.782 347.501C825.179 346.85 825.377 345.857 825.377 344.52C825.377 343.386 825.25 342.507 824.995 341.882L821.605 347.778C821.972 348.235 822.476 348.464 823.117 348.464Z" fill="url(#paint57_linear_122_130)"/>
<path d="M824.033 363.431H826.278V364.13H820.46V363.431H823.056V356.019L820.582 357.298L820.155 356.705L823.209 355.069H824.033V363.431Z" fill="url(#paint58_linear_122_130)"/>
<path d="M824.033 378.504H826.278V379.203H820.46V378.504H823.056V371.092L820.582 372.371L820.155 371.778L823.209 370.143H824.033V378.504Z" fill="url(#paint59_linear_122_130)"/>
<path d="M851.478 219.28C852.567 219.28 853.392 219.68 853.952 220.48C854.522 221.272 854.807 222.423 854.807 223.936C854.807 225.448 854.522 226.604 853.952 227.404C853.392 228.205 852.567 228.605 851.478 228.605C850.399 228.605 849.574 228.205 849.004 227.404C848.434 226.604 848.149 225.448 848.149 223.936C848.149 222.432 848.434 221.28 849.004 220.48C849.574 219.68 850.399 219.28 851.478 219.28ZM849.233 223.936C849.233 225.008 849.345 225.848 849.569 226.455L852.959 220.612C852.603 220.199 852.109 219.992 851.478 219.992C850.775 219.992 850.226 220.318 849.829 220.968C849.431 221.61 849.233 222.599 849.233 223.936ZM851.478 227.879C852.19 227.879 852.745 227.558 853.142 226.916C853.539 226.266 853.738 225.272 853.738 223.936C853.738 222.802 853.611 221.922 853.356 221.298L849.966 227.193C850.332 227.651 850.836 227.879 851.478 227.879Z" fill="url(#paint60_linear_122_130)"/>
<path d="M852.394 242.847H854.639V243.546H848.821V242.847H851.417V235.435L848.943 236.714L848.515 236.12L851.569 234.485H852.394V242.847Z" fill="url(#paint61_linear_122_130)"/>
<path d="M851.478 249.426C852.567 249.426 853.392 249.826 853.952 250.626C854.522 251.418 854.807 252.57 854.807 254.082C854.807 255.594 854.522 256.75 853.952 257.551C853.392 258.351 852.567 258.751 851.478 258.751C850.399 258.751 849.574 258.351 849.004 257.551C848.434 256.75 848.149 255.594 848.149 254.082C848.149 252.578 848.434 251.427 849.004 250.626C849.574 249.826 850.399 249.426 851.478 249.426ZM849.233 254.082C849.233 255.155 849.345 255.994 849.569 256.601L852.959 250.758C852.603 250.345 852.109 250.138 851.478 250.138C850.775 250.138 850.226 250.464 849.829 251.114C849.431 251.756 849.233 252.745 849.233 254.082ZM851.478 258.025C852.19 258.025 852.745 257.704 853.142 257.063C853.539 256.412 853.738 255.418 853.738 254.082C853.738 252.948 853.611 252.068 853.356 251.444L849.966 257.34C850.332 257.797 850.836 258.025 851.478 258.025Z" fill="url(#paint62_linear_122_130)"/>
<path d="M851.478 264.499C852.567 264.499 853.392 264.899 853.952 265.699C854.522 266.491 854.807 267.643 854.807 269.155C854.807 270.667 854.522 271.823 853.952 272.624C853.392 273.424 852.567 273.824 851.478 273.824C850.399 273.824 849.574 273.424 849.004 272.624C848.434 271.823 848.149 270.667 848.149 269.155C848.149 267.651 848.434 266.5 849.004 265.699C849.574 264.899 850.399 264.499 851.478 264.499ZM849.233 269.155C849.233 270.228 849.345 271.067 849.569 271.674L852.959 265.831C852.603 265.418 852.109 265.211 851.478 265.211C850.775 265.211 850.226 265.537 849.829 266.187C849.431 266.829 849.233 267.818 849.233 269.155ZM851.478 273.098C852.19 273.098 852.745 272.777 853.142 272.136C853.539 271.485 853.738 270.491 853.738 269.155C853.738 268.021 853.611 267.141 853.356 266.517L849.966 272.413C850.332 272.87 850.836 273.098 851.478 273.098Z" fill="url(#paint63_linear_122_130)"/>
<path d="M852.394 288.066H854.639V288.765H848.821V288.066H851.417V280.654L848.943 281.933L848.515 281.34L851.569 279.704H852.394V288.066Z" fill="url(#paint64_linear_122_130)"/>
<path d="M851.478 294.645C852.567 294.645 853.392 295.045 853.952 295.846C854.522 296.637 854.807 297.789 854.807 299.301C854.807 300.813 854.522 301.97 853.952 302.77C853.392 303.57 852.567 303.97 851.478 303.97C850.399 303.97 849.574 303.57 849.004 302.77C848.434 301.97 848.149 300.813 848.149 299.301C848.149 297.798 848.434 296.646 849.004 295.846C849.574 295.045 850.399 294.645 851.478 294.645ZM849.233 299.301C849.233 300.374 849.345 301.213 849.569 301.82L852.959 295.977C852.603 295.564 852.109 295.358 851.478 295.358C850.775 295.358 850.226 295.683 849.829 296.334C849.431 296.975 849.233 297.965 849.233 299.301ZM851.478 303.245C852.19 303.245 852.745 302.924 853.142 302.282C853.539 301.631 853.738 300.638 853.738 299.301C853.738 298.167 853.611 297.288 853.356 296.663L849.966 302.559C850.332 303.016 850.836 303.245 851.478 303.245Z" fill="url(#paint65_linear_122_130)"/>
<path d="M852.394 318.212H854.639V318.911H848.821V318.212H851.417V310.8L848.943 312.079L848.515 311.486L851.569 309.85H852.394V318.212Z" fill="url(#paint66_linear_122_130)"/>
<path d="M851.478 324.791C852.567 324.791 853.392 325.192 853.952 325.992C854.522 326.783 854.807 327.935 854.807 329.447C854.807 330.959 854.522 332.116 853.952 332.916C853.392 333.716 852.567 334.116 851.478 334.116C850.399 334.116 849.574 333.716 849.004 332.916C848.434 332.116 848.149 330.959 848.149 329.447C848.149 327.944 848.434 326.792 849.004 325.992C849.574 325.192 850.399 324.791 851.478 324.791ZM849.233 329.447C849.233 330.52 849.345 331.36 849.569 331.966L852.959 326.124C852.603 325.71 852.109 325.504 851.478 325.504C850.775 325.504 850.226 325.829 849.829 326.48C849.431 327.122 849.233 328.111 849.233 329.447ZM851.478 333.391C852.19 333.391 852.745 333.07 853.142 332.428C853.539 331.777 853.738 330.784 853.738 329.447C853.738 328.313 853.611 327.434 853.356 326.809L849.966 332.705C850.332 333.162 850.836 333.391 851.478 333.391Z" fill="url(#paint67_linear_122_130)"/>
<path d="M851.478 339.865C852.567 339.865 853.392 340.265 853.952 341.065C854.522 341.856 854.807 343.008 854.807 344.52C854.807 346.033 854.522 347.189 853.952 347.989C853.392 348.789 852.567 349.189 851.478 349.189C850.399 349.189 849.574 348.789 849.004 347.989C848.434 347.189 848.149 346.033 848.149 344.52C848.149 343.017 848.434 341.865 849.004 341.065C849.574 340.265 850.399 339.865 851.478 339.865ZM849.233 344.52C849.233 345.593 849.345 346.433 849.569 347.039L852.959 341.197C852.603 340.783 852.109 340.577 851.478 340.577C850.775 340.577 850.226 340.902 849.829 341.553C849.431 342.195 849.233 343.184 849.233 344.52ZM851.478 348.464C852.19 348.464 852.745 348.143 853.142 347.501C853.539 346.85 853.738 345.857 853.738 344.52C853.738 343.386 853.611 342.507 853.356 341.882L849.966 347.778C850.332 348.235 850.836 348.464 851.478 348.464Z" fill="url(#paint68_linear_122_130)"/>
<path d="M852.394 363.431H854.639V364.13H848.821V363.431H851.417V356.019L848.943 357.298L848.515 356.705L851.569 355.069H852.394V363.431Z" fill="url(#paint69_linear_122_130)"/>
<path d="M851.478 370.011C852.567 370.011 853.392 370.411 853.952 371.211C854.522 372.002 854.807 373.154 854.807 374.666C854.807 376.179 854.522 377.335 853.952 378.135C853.392 378.935 852.567 379.335 851.478 379.335C850.399 379.335 849.574 378.935 849.004 378.135C848.434 377.335 848.149 376.179 848.149 374.666C848.149 373.163 848.434 372.011 849.004 371.211C849.574 370.411 850.399 370.011 851.478 370.011ZM849.233 374.666C849.233 375.739 849.345 376.579 849.569 377.185L852.959 371.343C852.603 370.929 852.109 370.723 851.478 370.723C850.775 370.723 850.226 371.048 849.829 371.699C849.431 372.341 849.233 373.33 849.233 374.666ZM851.478 378.61C852.19 378.61 852.745 378.289 853.142 377.647C853.539 376.996 853.738 376.003 853.738 374.666C853.738 373.532 853.611 372.653 853.356 372.029L849.966 377.924C850.332 378.381 850.836 378.61 851.478 378.61Z" fill="url(#paint70_linear_122_130)"/>
<path d="M852.394 393.577H854.639V394.276H848.821V393.577H851.417V386.165L848.943 387.444L848.515 386.851L851.569 385.216H852.394V393.577Z" fill="url(#paint71_linear_122_130)"/>
<path d="M852.394 408.65H854.639V409.349H848.821V408.65H851.417V401.238L848.943 402.518L848.515 401.924L851.569 400.289H852.394V408.65Z" fill="url(#paint72_linear_122_130)"/>
<path d="M808.937 234.353C810.026 234.353 810.851 234.753 811.411 235.553C811.981 236.345 812.266 237.496 812.266 239.009C812.266 240.521 811.981 241.677 811.411 242.478C810.851 243.278 810.026 243.678 808.937 243.678C807.858 243.678 807.033 243.278 806.463 242.478C805.893 241.677 805.608 240.521 805.608 239.009C805.608 237.505 805.893 236.353 806.463 235.553C807.033 234.753 807.858 234.353 808.937 234.353ZM806.692 239.009C806.692 240.082 806.804 240.921 807.028 241.528L810.418 235.685C810.062 235.272 809.568 235.065 808.937 235.065C808.234 235.065 807.685 235.391 807.287 236.041C806.89 236.683 806.692 237.672 806.692 239.009ZM808.937 242.952C809.649 242.952 810.204 242.631 810.601 241.99C810.998 241.339 811.197 240.345 811.197 239.009C811.197 237.875 811.07 236.995 810.815 236.371L807.425 242.266C807.791 242.724 808.295 242.952 808.937 242.952Z" fill="url(#paint73_linear_122_130)"/>
<path d="M808.937 249.426C810.026 249.426 810.851 249.826 811.411 250.626C811.981 251.418 812.266 252.57 812.266 254.082C812.266 255.594 811.981 256.75 811.411 257.551C810.851 258.351 810.026 258.751 808.937 258.751C807.858 258.751 807.033 258.351 806.463 257.551C805.893 256.75 805.608 255.594 805.608 254.082C805.608 252.578 805.893 251.427 806.463 250.626C807.033 249.826 807.858 249.426 808.937 249.426ZM806.692 254.082C806.692 255.155 806.804 255.994 807.028 256.601L810.418 250.758C810.062 250.345 809.568 250.138 808.937 250.138C808.234 250.138 807.685 250.464 807.287 251.114C806.89 251.756 806.692 252.745 806.692 254.082ZM808.937 258.025C809.649 258.025 810.204 257.704 810.601 257.063C810.998 256.412 811.197 255.418 811.197 254.082C811.197 252.948 811.07 252.068 810.815 251.444L807.425 257.34C807.791 257.797 808.295 258.025 808.937 258.025Z" fill="url(#paint74_linear_122_130)"/>
<path d="M809.853 272.993H812.098V273.692H806.28V272.993H808.876V265.581L806.402 266.86L805.974 266.267L809.028 264.631H809.853V272.993Z" fill="url(#paint75_linear_122_130)"/>
<path d="M808.937 279.572C810.026 279.572 810.851 279.972 811.411 280.772C811.981 281.564 812.266 282.716 812.266 284.228C812.266 285.74 811.981 286.897 811.411 287.697C810.851 288.497 810.026 288.897 808.937 288.897C807.858 288.897 807.033 288.497 806.463 287.697C805.893 286.897 805.608 285.74 805.608 284.228C805.608 282.724 805.893 281.573 806.463 280.772C807.033 279.972 807.858 279.572 808.937 279.572ZM806.692 284.228C806.692 285.301 806.804 286.14 807.028 286.747L810.418 280.904C810.062 280.491 809.568 280.284 808.937 280.284C808.234 280.284 807.685 280.61 807.287 281.26C806.89 281.902 806.692 282.892 806.692 284.228ZM808.937 288.171C809.649 288.171 810.204 287.851 810.601 287.209C810.998 286.558 811.197 285.564 811.197 284.228C811.197 283.094 811.07 282.214 810.815 281.59L807.425 287.486C807.791 287.943 808.295 288.171 808.937 288.171Z" fill="url(#paint76_linear_122_130)"/>
<path d="M809.853 303.139H812.098V303.838H806.28V303.139H808.876V295.727L806.402 297.006L805.974 296.413L809.028 294.777H809.853V303.139Z" fill="url(#paint77_linear_122_130)"/>
<path d="M809.853 318.212H812.098V318.911H806.28V318.212H808.876V310.8L806.402 312.079L805.974 311.486L809.028 309.85H809.853V318.212Z" fill="url(#paint78_linear_122_130)"/>
<path d="M838.214 212.701H840.459V213.4H834.64V212.701H837.236V205.289L834.762 206.568L834.335 205.974L837.389 204.339H838.214V212.701Z" fill="url(#paint79_linear_122_130)"/>
<path d="M837.297 219.28C838.387 219.28 839.211 219.68 839.771 220.48C840.342 221.272 840.627 222.423 840.627 223.936C840.627 225.448 840.342 226.604 839.771 227.404C839.211 228.205 838.387 228.605 837.297 228.605C836.218 228.605 835.394 228.205 834.824 227.404C834.253 226.604 833.968 225.448 833.968 223.936C833.968 222.432 834.253 221.28 834.824 220.48C835.394 219.68 836.218 219.28 837.297 219.28ZM835.053 223.936C835.053 225.008 835.165 225.848 835.389 226.455L838.779 220.612C838.422 220.199 837.929 219.992 837.297 219.992C836.595 219.992 836.045 220.318 835.648 220.968C835.251 221.61 835.053 222.599 835.053 223.936ZM837.297 227.879C838.01 227.879 838.565 227.558 838.962 226.916C839.359 226.266 839.558 225.272 839.558 223.936C839.558 222.802 839.43 221.922 839.176 221.298L835.786 227.193C836.152 227.651 836.656 227.879 837.297 227.879Z" fill="url(#paint80_linear_122_130)"/>
<path d="M838.214 242.847H840.459V243.546H834.64V242.847H837.236V235.435L834.762 236.714L834.335 236.12L837.389 234.485H838.214V242.847Z" fill="url(#paint81_linear_122_130)"/>
<path d="M838.214 257.92H840.459V258.619H834.64V257.92H837.236V250.508L834.762 251.787L834.335 251.194L837.389 249.558H838.214V257.92Z" fill="url(#paint82_linear_122_130)"/>
<path d="M837.297 264.499C838.387 264.499 839.211 264.899 839.771 265.699C840.342 266.491 840.627 267.643 840.627 269.155C840.627 270.667 840.342 271.823 839.771 272.624C839.211 273.424 838.387 273.824 837.297 273.824C836.218 273.824 835.394 273.424 834.824 272.624C834.253 271.823 833.968 270.667 833.968 269.155C833.968 267.651 834.253 266.5 834.824 265.699C835.394 264.899 836.218 264.499 837.297 264.499ZM835.053 269.155C835.053 270.228 835.165 271.067 835.389 271.674L838.779 265.831C838.422 265.418 837.929 265.211 837.297 265.211C836.595 265.211 836.045 265.537 835.648 266.187C835.251 266.829 835.053 267.818 835.053 269.155ZM837.297 273.098C838.01 273.098 838.565 272.777 838.962 272.136C839.359 271.485 839.558 270.491 839.558 269.155C839.558 268.021 839.43 267.141 839.176 266.517L835.786 272.413C836.152 272.87 836.656 273.098 837.297 273.098Z" fill="url(#paint83_linear_122_130)"/>
<path d="M838.214 288.066H840.459V288.765H834.64V288.066H837.236V280.654L834.762 281.933L834.335 281.34L837.389 279.704H838.214V288.066Z" fill="url(#paint84_linear_122_130)"/>
<path d="M838.214 303.139H840.459V303.838H834.64V303.139H837.236V295.727L834.762 297.006L834.335 296.413L837.389 294.777H838.214V303.139Z" fill="url(#paint85_linear_122_130)"/>
<path d="M837.297 309.718C838.387 309.718 839.211 310.118 839.771 310.919C840.342 311.71 840.627 312.862 840.627 314.374C840.627 315.886 840.342 317.043 839.771 317.843C839.211 318.643 838.387 319.043 837.297 319.043C836.218 319.043 835.394 318.643 834.824 317.843C834.253 317.043 833.968 315.886 833.968 314.374C833.968 312.871 834.253 311.719 834.824 310.919C835.394 310.118 836.218 309.718 837.297 309.718ZM835.053 314.374C835.053 315.447 835.165 316.286 835.389 316.893L838.779 311.05C838.422 310.637 837.929 310.431 837.297 310.431C836.595 310.431 836.045 310.756 835.648 311.407C835.251 312.048 835.053 313.038 835.053 314.374ZM837.297 318.318C838.01 318.318 838.565 317.997 838.962 317.355C839.359 316.704 839.558 315.711 839.558 314.374C839.558 313.24 839.43 312.361 839.176 311.736L835.786 317.632C836.152 318.089 836.656 318.318 837.297 318.318Z" fill="url(#paint86_linear_122_130)"/>
<path d="M838.214 333.285H840.459V333.984H834.64V333.285H837.236V325.873L834.762 327.152L834.335 326.559L837.389 324.923H838.214V333.285Z" fill="url(#paint87_linear_122_130)"/>
<path d="M837.297 339.865C838.387 339.865 839.211 340.265 839.771 341.065C840.342 341.856 840.627 343.008 840.627 344.52C840.627 346.033 840.342 347.189 839.771 347.989C839.211 348.789 838.387 349.189 837.297 349.189C836.218 349.189 835.394 348.789 834.824 347.989C834.253 347.189 833.968 346.033 833.968 344.52C833.968 343.017 834.253 341.865 834.824 341.065C835.394 340.265 836.218 339.865 837.297 339.865ZM835.053 344.52C835.053 345.593 835.165 346.433 835.389 347.039L838.779 341.197C838.422 340.783 837.929 340.577 837.297 340.577C836.595 340.577 836.045 340.902 835.648 341.553C835.251 342.195 835.053 343.184 835.053 344.52ZM837.297 348.464C838.01 348.464 838.565 348.143 838.962 347.501C839.359 346.85 839.558 345.857 839.558 344.52C839.558 343.386 839.43 342.507 839.176 341.882L835.786 347.778C836.152 348.235 836.656 348.464 837.297 348.464Z" fill="url(#paint88_linear_122_130)"/>
<path d="M865.658 204.207C866.747 204.207 867.572 204.607 868.132 205.407C868.702 206.199 868.987 207.35 868.987 208.863C868.987 210.375 868.702 211.531 868.132 212.331C867.572 213.132 866.747 213.532 865.658 213.532C864.579 213.532 863.754 213.132 863.184 212.331C862.614 211.531 862.329 210.375 862.329 208.863C862.329 207.359 862.614 206.207 863.184 205.407C863.754 204.607 864.579 204.207 865.658 204.207ZM863.413 208.863C863.413 209.935 863.525 210.775 863.749 211.382L867.139 205.539C866.783 205.126 866.289 204.919 865.658 204.919C864.956 204.919 864.406 205.245 864.009 205.895C863.612 206.537 863.413 207.526 863.413 208.863ZM865.658 212.806C866.371 212.806 866.926 212.485 867.323 211.843C867.72 211.193 867.918 210.199 867.918 208.863C867.918 207.728 867.791 206.849 867.536 206.225L864.146 212.12C864.513 212.578 865.017 212.806 865.658 212.806Z" fill="url(#paint89_linear_122_130)"/>
<path d="M866.574 227.774H868.819V228.473H863.001V227.774H865.597V220.362L863.123 221.641L862.696 221.047L865.75 219.412H866.574V227.774Z" fill="url(#paint90_linear_122_130)"/>
<path d="M866.574 242.847H868.819V243.546H863.001V242.847H865.597V235.435L863.123 236.714L862.696 236.12L865.75 234.485H866.574V242.847Z" fill="url(#paint91_linear_122_130)"/>
<path d="M865.658 249.426C866.747 249.426 867.572 249.826 868.132 250.626C868.702 251.418 868.987 252.57 868.987 254.082C868.987 255.594 868.702 256.75 868.132 257.551C867.572 258.351 866.747 258.751 865.658 258.751C864.579 258.751 863.754 258.351 863.184 257.551C862.614 256.75 862.329 255.594 862.329 254.082C862.329 252.578 862.614 251.427 863.184 250.626C863.754 249.826 864.579 249.426 865.658 249.426ZM863.413 254.082C863.413 255.155 863.525 255.994 863.749 256.601L867.139 250.758C866.783 250.345 866.289 250.138 865.658 250.138C864.956 250.138 864.406 250.464 864.009 251.114C863.612 251.756 863.413 252.745 863.413 254.082ZM865.658 258.025C866.371 258.025 866.926 257.704 867.323 257.063C867.72 256.412 867.918 255.418 867.918 254.082C867.918 252.948 867.791 252.068 867.536 251.444L864.146 257.34C864.513 257.797 865.017 258.025 865.658 258.025Z" fill="url(#paint92_linear_122_130)"/>
<path d="M865.658 264.499C866.747 264.499 867.572 264.899 868.132 265.699C868.702 266.491 868.987 267.643 868.987 269.155C868.987 270.667 868.702 271.823 868.132 272.624C867.572 273.424 866.747 273.824 865.658 273.824C864.579 273.824 863.754 273.424 863.184 272.624C862.614 271.823 862.329 270.667 862.329 269.155C862.329 267.651 862.614 266.5 863.184 265.699C863.754 264.899 864.579 264.499 865.658 264.499ZM863.413 269.155C863.413 270.228 863.525 271.067 863.749 271.674L867.139 265.831C866.783 265.418 866.289 265.211 865.658 265.211C864.956 265.211 864.406 265.537 864.009 266.187C863.612 266.829 863.413 267.818 863.413 269.155ZM865.658 273.098C866.371 273.098 866.926 272.777 867.323 272.136C867.72 271.485 867.918 270.491 867.918 269.155C867.918 268.021 867.791 267.141 867.536 266.517L864.146 272.413C864.513 272.87 865.017 273.098 865.658 273.098Z" fill="url(#paint93_linear_122_130)"/>
</g>
</g>
<defs>
<filter id="filter0_f_122_130" x="-400.19" y="-400.19" width="1824.38" height="1263.3" filterUnits="userSpaceOnUse" color-interpolation-filters="sRGB">
<feFlood flood-opacity="0" result="BackgroundImageFix"/>
<feBlend mode="normal" in="SourceGraphic" in2="BackgroundImageFix" result="shape"/>
<feGaussianBlur stdDeviation="200.095" result="effect1_foregroundBlur_122_130"/>
</filter>
<linearGradient id="paint0_linear_122_130" x1="160.74" y1="387.526" x2="160.74" y2="593.445" gradientUnits="userSpaceOnUse">
<stop stop-color="#F7DD43"/>
<stop offset="1" stop-color="#F7DD43" stop-opacity="0"/>
</linearGradient>
<linearGradient id="paint1_linear_122_130" x1="160.74" y1="387.526" x2="160.74" y2="593.445" gradientUnits="userSpaceOnUse">
<stop stop-color="#F7DD43"/>
<stop offset="1" stop-color="#F7DD43" stop-opacity="0"/>
</linearGradient>
<linearGradient id="paint2_linear_122_130" x1="160.74" y1="387.526" x2="160.74" y2="593.445" gradientUnits="userSpaceOnUse">
<stop stop-color="#F7DD43"/>
<stop offset="1" stop-color="#F7DD43" stop-opacity="0"/>
</linearGradient>
<linearGradient id="paint3_linear_122_130" x1="160.74" y1="387.526" x2="160.74" y2="593.445" gradientUnits="userSpaceOnUse">
<stop stop-color="#F7DD43"/>
<stop offset="1" stop-color="#F7DD43" stop-opacity="0"/>
</linearGradient>
<linearGradient id="paint4_linear_122_130" x1="160.74" y1="387.526" x2="160.74" y2="593.445" gradientUnits="userSpaceOnUse">
<stop stop-color="#F7DD43"/>
<stop offset="1" stop-color="#F7DD43" stop-opacity="0"/>
</linearGradient>
<linearGradient id="paint5_linear_122_130" x1="160.74" y1="387.526" x2="160.74" y2="593.445" gradientUnits="userSpaceOnUse">
<stop stop-color="#F7DD43"/>
<stop offset="1" stop-color="#F7DD43" stop-opacity="0"/>
</linearGradient>
<linearGradient id="paint6_linear_122_130" x1="160.74" y1="387.526" x2="160.74" y2="593.445" gradientUnits="userSpaceOnUse">
<stop stop-color="#F7DD43"/>
<stop offset="1" stop-color="#F7DD43" stop-opacity="0"/>
</linearGradient>
<linearGradient id="paint7_linear_122_130" x1="160.74" y1="387.526" x2="160.74" y2="593.445" gradientUnits="userSpaceOnUse">
<stop stop-color="#F7DD43"/>
<stop offset="1" stop-color="#F7DD43" stop-opacity="0"/>
</linearGradient>
<linearGradient id="paint8_linear_122_130" x1="160.74" y1="387.526" x2="160.74" y2="593.445" gradientUnits="userSpaceOnUse">
<stop stop-color="#F7DD43"/>
<stop offset="1" stop-color="#F7DD43" stop-opacity="0"/>
</linearGradient>
<linearGradient id="paint9_linear_122_130" x1="160.74" y1="387.526" x2="160.74" y2="593.445" gradientUnits="userSpaceOnUse">
<stop stop-color="#F7DD43"/>
<stop offset="1" stop-color="#F7DD43" stop-opacity="0"/>
</linearGradient>
<linearGradient id="paint10_linear_122_130" x1="160.74" y1="387.526" x2="160.74" y2="593.445" gradientUnits="userSpaceOnUse">
<stop stop-color="#F7DD43"/>
<stop offset="1" stop-color="#F7DD43" stop-opacity="0"/>
</linearGradient>
<linearGradient id="paint11_linear_122_130" x1="160.74" y1="387.526" x2="160.74" y2="593.445" gradientUnits="userSpaceOnUse">
<stop stop-color="#F7DD43"/>
<stop offset="1" stop-color="#F7DD43" stop-opacity="0"/>
</linearGradient>
<linearGradient id="paint12_linear_122_130" x1="160.74" y1="387.526" x2="160.74" y2="593.445" gradientUnits="userSpaceOnUse">
<stop stop-color="#F7DD43"/>
<stop offset="1" stop-color="#F7DD43" stop-opacity="0"/>
</linearGradient>
<linearGradient id="paint13_linear_122_130" x1="160.74" y1="387.526" x2="160.74" y2="593.445" gradientUnits="userSpaceOnUse">
<stop stop-color="#F7DD43"/>
<stop offset="1" stop-color="#F7DD43" stop-opacity="0"/>
</linearGradient>
<linearGradient id="paint14_linear_122_130" x1="160.74" y1="387.526" x2="160.74" y2="593.445" gradientUnits="userSpaceOnUse">
<stop stop-color="#F7DD43"/>
<stop offset="1" stop-color="#F7DD43" stop-opacity="0"/>
</linearGradient>
<linearGradient id="paint15_linear_122_130" x1="160.74" y1="387.526" x2="160.74" y2="593.445" gradientUnits="userSpaceOnUse">
<stop stop-color="#F7DD43"/>
<stop offset="1" stop-color="#F7DD43" stop-opacity="0"/>
</linearGradient>
<linearGradient id="paint16_linear_122_130" x1="160.74" y1="387.526" x2="160.74" y2="593.445" gradientUnits="userSpaceOnUse">
<stop stop-color="#F7DD43"/>
<stop offset="1" stop-color="#F7DD43" stop-opacity="0"/>
</linearGradient>
<linearGradient id="paint17_linear_122_130" x1="160.74" y1="387.526" x2="160.74" y2="593.445" gradientUnits="userSpaceOnUse">
<stop stop-color="#F7DD43"/>
<stop offset="1" stop-color="#F7DD43" stop-opacity="0"/>
</linearGradient>
<linearGradient id="paint18_linear_122_130" x1="160.74" y1="387.526" x2="160.74" y2="593.445" gradientUnits="userSpaceOnUse">
<stop stop-color="#F7DD43"/>
<stop offset="1" stop-color="#F7DD43" stop-opacity="0"/>
</linearGradient>
<linearGradient id="paint19_linear_122_130" x1="160.74" y1="387.526" x2="160.74" y2="593.445" gradientUnits="userSpaceOnUse">
<stop stop-color="#F7DD43"/>
<stop offset="1" stop-color="#F7DD43" stop-opacity="0"/>
</linearGradient>
<linearGradient id="paint20_linear_122_130" x1="160.74" y1="387.526" x2="160.74" y2="593.445" gradientUnits="userSpaceOnUse">
<stop stop-color="#F7DD43"/>
<stop offset="1" stop-color="#F7DD43" stop-opacity="0"/>
</linearGradient>
<linearGradient id="paint21_linear_122_130" x1="160.74" y1="387.526" x2="160.74" y2="593.445" gradientUnits="userSpaceOnUse">
<stop stop-color="#F7DD43"/>
<stop offset="1" stop-color="#F7DD43" stop-opacity="0"/>
</linearGradient>
<linearGradient id="paint22_linear_122_130" x1="160.74" y1="387.526" x2="160.74" y2="593.445" gradientUnits="userSpaceOnUse">
<stop stop-color="#F7DD43"/>
<stop offset="1" stop-color="#F7DD43" stop-opacity="0"/>
</linearGradient>
<linearGradient id="paint23_linear_122_130" x1="160.74" y1="387.526" x2="160.74" y2="593.445" gradientUnits="userSpaceOnUse">
<stop stop-color="#F7DD43"/>
<stop offset="1" stop-color="#F7DD43" stop-opacity="0"/>
</linearGradient>
<linearGradient id="paint24_linear_122_130" x1="160.74" y1="387.526" x2="160.74" y2="593.445" gradientUnits="userSpaceOnUse">
<stop stop-color="#F7DD43"/>
<stop offset="1" stop-color="#F7DD43" stop-opacity="0"/>
</linearGradient>
<linearGradient id="paint25_linear_122_130" x1="160.74" y1="387.526" x2="160.74" y2="593.445" gradientUnits="userSpaceOnUse">
<stop stop-color="#F7DD43"/>
<stop offset="1" stop-color="#F7DD43" stop-opacity="0"/>
</linearGradient>
<linearGradient id="paint26_linear_122_130" x1="160.74" y1="387.526" x2="160.74" y2="593.445" gradientUnits="userSpaceOnUse">
<stop stop-color="#F7DD43"/>
<stop offset="1" stop-color="#F7DD43" stop-opacity="0"/>
</linearGradient>
<linearGradient id="paint27_linear_122_130" x1="160.74" y1="387.526" x2="160.74" y2="593.445" gradientUnits="userSpaceOnUse">
<stop stop-color="#F7DD43"/>
<stop offset="1" stop-color="#F7DD43" stop-opacity="0"/>
</linearGradient>
<linearGradient id="paint28_linear_122_130" x1="160.74" y1="387.526" x2="160.74" y2="593.445" gradientUnits="userSpaceOnUse">
<stop stop-color="#F7DD43"/>
<stop offset="1" stop-color="#F7DD43" stop-opacity="0"/>
</linearGradient>
<linearGradient id="paint29_linear_122_130" x1="160.74" y1="387.526" x2="160.74" y2="593.445" gradientUnits="userSpaceOnUse">
<stop stop-color="#F7DD43"/>
<stop offset="1" stop-color="#F7DD43" stop-opacity="0"/>
</linearGradient>
<linearGradient id="paint30_linear_122_130" x1="160.74" y1="387.526" x2="160.74" y2="593.445" gradientUnits="userSpaceOnUse">
<stop stop-color="#F7DD43"/>
<stop offset="1" stop-color="#F7DD43" stop-opacity="0"/>
</linearGradient>
<linearGradient id="paint31_linear_122_130" x1="160.74" y1="387.526" x2="160.74" y2="593.445" gradientUnits="userSpaceOnUse">
<stop stop-color="#F7DD43"/>
<stop offset="1" stop-color="#F7DD43" stop-opacity="0"/>
</linearGradient>
<linearGradient id="paint32_linear_122_130" x1="160.74" y1="387.526" x2="160.74" y2="593.445" gradientUnits="userSpaceOnUse">
<stop stop-color="#F7DD43"/>
<stop offset="1" stop-color="#F7DD43" stop-opacity="0"/>
</linearGradient>
<linearGradient id="paint33_linear_122_130" x1="160.74" y1="387.526" x2="160.74" y2="593.445" gradientUnits="userSpaceOnUse">
<stop stop-color="#F7DD43"/>
<stop offset="1" stop-color="#F7DD43" stop-opacity="0"/>
</linearGradient>
<linearGradient id="paint34_linear_122_130" x1="160.74" y1="387.526" x2="160.74" y2="593.445" gradientUnits="userSpaceOnUse">
<stop stop-color="#F7DD43"/>
<stop offset="1" stop-color="#F7DD43" stop-opacity="0"/>
</linearGradient>
<linearGradient id="paint35_linear_122_130" x1="160.74" y1="387.526" x2="160.74" y2="593.445" gradientUnits="userSpaceOnUse">
<stop stop-color="#F7DD43"/>
<stop offset="1" stop-color="#F7DD43" stop-opacity="0"/>
</linearGradient>
<linearGradient id="paint36_linear_122_130" x1="160.74" y1="387.526" x2="160.74" y2="593.445" gradientUnits="userSpaceOnUse">
<stop stop-color="#F7DD43"/>
<stop offset="1" stop-color="#F7DD43" stop-opacity="0"/>
</linearGradient>
<linearGradient id="paint37_linear_122_130" x1="160.74" y1="387.526" x2="160.74" y2="593.445" gradientUnits="userSpaceOnUse">
<stop stop-color="#F7DD43"/>
<stop offset="1" stop-color="#F7DD43" stop-opacity="0"/>
</linearGradient>
<linearGradient id="paint38_linear_122_130" x1="160.74" y1="387.526" x2="160.74" y2="593.445" gradientUnits="userSpaceOnUse">
<stop stop-color="#F7DD43"/>
<stop offset="1" stop-color="#F7DD43" stop-opacity="0"/>
</linearGradient>
<linearGradient id="paint39_linear_122_130" x1="160.74" y1="387.526" x2="160.74" y2="593.445" gradientUnits="userSpaceOnUse">
<stop stop-color="#F7DD43"/>
<stop offset="1" stop-color="#F7DD43" stop-opacity="0"/>
</linearGradient>
<linearGradient id="paint40_linear_122_130" x1="160.74" y1="387.526" x2="160.74" y2="593.445" gradientUnits="userSpaceOnUse">
<stop stop-color="#F7DD43"/>
<stop offset="1" stop-color="#F7DD43" stop-opacity="0"/>
</linearGradient>
<linearGradient id="paint41_linear_122_130" x1="160.74" y1="387.526" x2="160.74" y2="593.445" gradientUnits="userSpaceOnUse">
<stop stop-color="#F7DD43"/>
<stop offset="1" stop-color="#F7DD43" stop-opacity="0"/>
</linearGradient>
<linearGradient id="paint42_linear_122_130" x1="160.74" y1="387.526" x2="160.74" y2="593.445" gradientUnits="userSpaceOnUse">
<stop stop-color="#F7DD43"/>
<stop offset="1" stop-color="#F7DD43" stop-opacity="0"/>
</linearGradient>
<linearGradient id="paint43_linear_122_130" x1="160.74" y1="387.526" x2="160.74" y2="593.445" gradientUnits="userSpaceOnUse">
<stop stop-color="#F7DD43"/>
<stop offset="1" stop-color="#F7DD43" stop-opacity="0"/>
</linearGradient>
<linearGradient id="paint44_linear_122_130" x1="160.74" y1="387.526" x2="160.74" y2="593.445" gradientUnits="userSpaceOnUse">
<stop stop-color="#F7DD43"/>
<stop offset="1" stop-color="#F7DD43" stop-opacity="0"/>
</linearGradient>
<linearGradient id="paint45_linear_122_130" x1="160.74" y1="387.526" x2="160.74" y2="593.445" gradientUnits="userSpaceOnUse">
<stop stop-color="#F7DD43"/>
<stop offset="1" stop-color="#F7DD43" stop-opacity="0"/>
</linearGradient>
<linearGradient id="paint46_linear_122_130" x1="160.74" y1="387.526" x2="160.74" y2="593.445" gradientUnits="userSpaceOnUse">
<stop stop-color="#F7DD43"/>
<stop offset="1" stop-color="#F7DD43" stop-opacity="0"/>
</linearGradient>
<linearGradient id="paint47_linear_122_130" x1="837.297" y1="189.134" x2="837.297" y2="386.745" gradientUnits="userSpaceOnUse">
<stop stop-color="#F7DD43"/>
<stop offset="1" stop-color="#F7DD43" stop-opacity="0"/>
</linearGradient>
<linearGradient id="paint48_linear_122_130" x1="837.297" y1="189.134" x2="837.297" y2="386.745" gradientUnits="userSpaceOnUse">
<stop stop-color="#F7DD43"/>
<stop offset="1" stop-color="#F7DD43" stop-opacity="0"/>
</linearGradient>
<linearGradient id="paint49_linear_122_130" x1="837.297" y1="189.134" x2="837.297" y2="386.745" gradientUnits="userSpaceOnUse">
<stop stop-color="#F7DD43"/>
<stop offset="1" stop-color="#F7DD43" stop-opacity="0"/>
</linearGradient>
<linearGradient id="paint50_linear_122_130" x1="837.297" y1="189.134" x2="837.297" y2="386.745" gradientUnits="userSpaceOnUse">
<stop stop-color="#F7DD43"/>
<stop offset="1" stop-color="#F7DD43" stop-opacity="0"/>
</linearGradient>
<linearGradient id="paint51_linear_122_130" x1="837.297" y1="189.134" x2="837.297" y2="386.745" gradientUnits="userSpaceOnUse">
<stop stop-color="#F7DD43"/>
<stop offset="1" stop-color="#F7DD43" stop-opacity="0"/>
</linearGradient>
<linearGradient id="paint52_linear_122_130" x1="837.297" y1="189.134" x2="837.297" y2="386.745" gradientUnits="userSpaceOnUse">
<stop stop-color="#F7DD43"/>
<stop offset="1" stop-color="#F7DD43" stop-opacity="0"/>
</linearGradient>
<linearGradient id="paint53_linear_122_130" x1="837.297" y1="189.134" x2="837.297" y2="386.745" gradientUnits="userSpaceOnUse">
<stop stop-color="#F7DD43"/>
<stop offset="1" stop-color="#F7DD43" stop-opacity="0"/>
</linearGradient>
<linearGradient id="paint54_linear_122_130" x1="837.297" y1="189.134" x2="837.297" y2="386.745" gradientUnits="userSpaceOnUse">
<stop stop-color="#F7DD43"/>
<stop offset="1" stop-color="#F7DD43" stop-opacity="0"/>
</linearGradient>
<linearGradient id="paint55_linear_122_130" x1="837.297" y1="189.134" x2="837.297" y2="386.745" gradientUnits="userSpaceOnUse">
<stop stop-color="#F7DD43"/>
<stop offset="1" stop-color="#F7DD43" stop-opacity="0"/>
</linearGradient>
<linearGradient id="paint56_linear_122_130" x1="837.297" y1="189.134" x2="837.297" y2="386.745" gradientUnits="userSpaceOnUse">
<stop stop-color="#F7DD43"/>
<stop offset="1" stop-color="#F7DD43" stop-opacity="0"/>
</linearGradient>
<linearGradient id="paint57_linear_122_130" x1="837.297" y1="189.134" x2="837.297" y2="386.745" gradientUnits="userSpaceOnUse">
<stop stop-color="#F7DD43"/>
<stop offset="1" stop-color="#F7DD43" stop-opacity="0"/>
</linearGradient>
<linearGradient id="paint58_linear_122_130" x1="837.297" y1="189.134" x2="837.297" y2="386.745" gradientUnits="userSpaceOnUse">
<stop stop-color="#F7DD43"/>
<stop offset="1" stop-color="#F7DD43" stop-opacity="0"/>
</linearGradient>
<linearGradient id="paint59_linear_122_130" x1="837.297" y1="189.134" x2="837.297" y2="386.745" gradientUnits="userSpaceOnUse">
<stop stop-color="#F7DD43"/>
<stop offset="1" stop-color="#F7DD43" stop-opacity="0"/>
</linearGradient>
<linearGradient id="paint60_linear_122_130" x1="837.297" y1="189.134" x2="837.297" y2="386.745" gradientUnits="userSpaceOnUse">
<stop stop-color="#F7DD43"/>
<stop offset="1" stop-color="#F7DD43" stop-opacity="0"/>
</linearGradient>
<linearGradient id="paint61_linear_122_130" x1="837.297" y1="189.134" x2="837.297" y2="386.745" gradientUnits="userSpaceOnUse">
<stop stop-color="#F7DD43"/>
<stop offset="1" stop-color="#F7DD43" stop-opacity="0"/>
</linearGradient>
<linearGradient id="paint62_linear_122_130" x1="837.297" y1="189.134" x2="837.297" y2="386.745" gradientUnits="userSpaceOnUse">
<stop stop-color="#F7DD43"/>
<stop offset="1" stop-color="#F7DD43" stop-opacity="0"/>
</linearGradient>
<linearGradient id="paint63_linear_122_130" x1="837.297" y1="189.134" x2="837.297" y2="386.745" gradientUnits="userSpaceOnUse">
<stop stop-color="#F7DD43"/>
<stop offset="1" stop-color="#F7DD43" stop-opacity="0"/>
</linearGradient>
<linearGradient id="paint64_linear_122_130" x1="837.297" y1="189.134" x2="837.297" y2="386.745" gradientUnits="userSpaceOnUse">
<stop stop-color="#F7DD43"/>
<stop offset="1" stop-color="#F7DD43" stop-opacity="0"/>
</linearGradient>
<linearGradient id="paint65_linear_122_130" x1="837.297" y1="189.134" x2="837.297" y2="386.745" gradientUnits="userSpaceOnUse">
<stop stop-color="#F7DD43"/>
<stop offset="1" stop-color="#F7DD43" stop-opacity="0"/>
</linearGradient>
<linearGradient id="paint66_linear_122_130" x1="837.297" y1="189.134" x2="837.297" y2="386.745" gradientUnits="userSpaceOnUse">
<stop stop-color="#F7DD43"/>
<stop offset="1" stop-color="#F7DD43" stop-opacity="0"/>
</linearGradient>
<linearGradient id="paint67_linear_122_130" x1="837.297" y1="189.134" x2="837.297" y2="386.745" gradientUnits="userSpaceOnUse">
<stop stop-color="#F7DD43"/>
<stop offset="1" stop-color="#F7DD43" stop-opacity="0"/>
</linearGradient>
<linearGradient id="paint68_linear_122_130" x1="837.297" y1="189.134" x2="837.297" y2="386.745" gradientUnits="userSpaceOnUse">
<stop stop-color="#F7DD43"/>
<stop offset="1" stop-color="#F7DD43" stop-opacity="0"/>
</linearGradient>
<linearGradient id="paint69_linear_122_130" x1="837.297" y1="189.134" x2="837.297" y2="386.745" gradientUnits="userSpaceOnUse">
<stop stop-color="#F7DD43"/>
<stop offset="1" stop-color="#F7DD43" stop-opacity="0"/>
</linearGradient>
<linearGradient id="paint70_linear_122_130" x1="837.297" y1="189.134" x2="837.297" y2="386.745" gradientUnits="userSpaceOnUse">
<stop stop-color="#F7DD43"/>
<stop offset="1" stop-color="#F7DD43" stop-opacity="0"/>
</linearGradient>
<linearGradient id="paint71_linear_122_130" x1="837.297" y1="189.134" x2="837.297" y2="386.745" gradientUnits="userSpaceOnUse">
<stop stop-color="#F7DD43"/>
<stop offset="1" stop-color="#F7DD43" stop-opacity="0"/>
</linearGradient>
<linearGradient id="paint72_linear_122_130" x1="837.297" y1="189.134" x2="837.297" y2="386.745" gradientUnits="userSpaceOnUse">
<stop stop-color="#F7DD43"/>
<stop offset="1" stop-color="#F7DD43" stop-opacity="0"/>
</linearGradient>
<linearGradient id="paint73_linear_122_130" x1="837.297" y1="189.134" x2="837.297" y2="386.745" gradientUnits="userSpaceOnUse">
<stop stop-color="#F7DD43"/>
<stop offset="1" stop-color="#F7DD43" stop-opacity="0"/>
</linearGradient>
<linearGradient id="paint74_linear_122_130" x1="837.297" y1="189.134" x2="837.297" y2="386.745" gradientUnits="userSpaceOnUse">
<stop stop-color="#F7DD43"/>
<stop offset="1" stop-color="#F7DD43" stop-opacity="0"/>
</linearGradient>
<linearGradient id="paint75_linear_122_130" x1="837.297" y1="189.134" x2="837.297" y2="386.745" gradientUnits="userSpaceOnUse">
<stop stop-color="#F7DD43"/>
<stop offset="1" stop-color="#F7DD43" stop-opacity="0"/>
</linearGradient>
<linearGradient id="paint76_linear_122_130" x1="837.297" y1="189.134" x2="837.297" y2="386.745" gradientUnits="userSpaceOnUse">
<stop stop-color="#F7DD43"/>
<stop offset="1" stop-color="#F7DD43" stop-opacity="0"/>
</linearGradient>
<linearGradient id="paint77_linear_122_130" x1="837.297" y1="189.134" x2="837.297" y2="386.745" gradientUnits="userSpaceOnUse">
<stop stop-color="#F7DD43"/>
<stop offset="1" stop-color="#F7DD43" stop-opacity="0"/>
</linearGradient>
<linearGradient id="paint78_linear_122_130" x1="837.297" y1="189.134" x2="837.297" y2="386.745" gradientUnits="userSpaceOnUse">
<stop stop-color="#F7DD43"/>
<stop offset="1" stop-color="#F7DD43" stop-opacity="0"/>
</linearGradient>
<linearGradient id="paint79_linear_122_130" x1="837.297" y1="189.134" x2="837.297" y2="386.745" gradientUnits="userSpaceOnUse">
<stop stop-color="#F7DD43"/>
<stop offset="1" stop-color="#F7DD43" stop-opacity="0"/>
</linearGradient>
<linearGradient id="paint80_linear_122_130" x1="837.297" y1="189.134" x2="837.297" y2="386.745" gradientUnits="userSpaceOnUse">
<stop stop-color="#F7DD43"/>
<stop offset="1" stop-color="#F7DD43" stop-opacity="0"/>
</linearGradient>
<linearGradient id="paint81_linear_122_130" x1="837.297" y1="189.134" x2="837.297" y2="386.745" gradientUnits="userSpaceOnUse">
<stop stop-color="#F7DD43"/>
<stop offset="1" stop-color="#F7DD43" stop-opacity="0"/>
</linearGradient>
<linearGradient id="paint82_linear_122_130" x1="837.297" y1="189.134" x2="837.297" y2="386.745" gradientUnits="userSpaceOnUse">
<stop stop-color="#F7DD43"/>
<stop offset="1" stop-color="#F7DD43" stop-opacity="0"/>
</linearGradient>
<linearGradient id="paint83_linear_122_130" x1="837.297" y1="189.134" x2="837.297" y2="386.745" gradientUnits="userSpaceOnUse">
<stop stop-color="#F7DD43"/>
<stop offset="1" stop-color="#F7DD43" stop-opacity="0"/>
</linearGradient>
<linearGradient id="paint84_linear_122_130" x1="837.297" y1="189.134" x2="837.297" y2="386.745" gradientUnits="userSpaceOnUse">
<stop stop-color="#F7DD43"/>
<stop offset="1" stop-color="#F7DD43" stop-opacity="0"/>
</linearGradient>
<linearGradient id="paint85_linear_122_130" x1="837.297" y1="189.134" x2="837.297" y2="386.745" gradientUnits="userSpaceOnUse">
<stop stop-color="#F7DD43"/>
<stop offset="1" stop-color="#F7DD43" stop-opacity="0"/>
</linearGradient>
<linearGradient id="paint86_linear_122_130" x1="837.297" y1="189.134" x2="837.297" y2="386.745" gradientUnits="userSpaceOnUse">
<stop stop-color="#F7DD43"/>
<stop offset="1" stop-color="#F7DD43" stop-opacity="0"/>
</linearGradient>
<linearGradient id="paint87_linear_122_130" x1="837.297" y1="189.134" x2="837.297" y2="386.745" gradientUnits="userSpaceOnUse">
<stop stop-color="#F7DD43"/>
<stop offset="1" stop-color="#F7DD43" stop-opacity="0"/>
</linearGradient>
<linearGradient id="paint88_linear_122_130" x1="837.297" y1="189.134" x2="837.297" y2="386.745" gradientUnits="userSpaceOnUse">
<stop stop-color="#F7DD43"/>
<stop offset="1" stop-color="#F7DD43" stop-opacity="0"/>
</linearGradient>
<linearGradient id="paint89_linear_122_130" x1="837.297" y1="189.134" x2="837.297" y2="386.745" gradientUnits="userSpaceOnUse">
<stop stop-color="#F7DD43"/>
<stop offset="1" stop-color="#F7DD43" stop-opacity="0"/>
</linearGradient>
<linearGradient id="paint90_linear_122_130" x1="837.297" y1="189.134" x2="837.297" y2="386.745" gradientUnits="userSpaceOnUse">
<stop stop-color="#F7DD43"/>
<stop offset="1" stop-color="#F7DD43" stop-opacity="0"/>
</linearGradient>
<linearGradient id="paint91_linear_122_130" x1="837.297" y1="189.134" x2="837.297" y2="386.745" gradientUnits="userSpaceOnUse">
<stop stop-color="#F7DD43"/>
<stop offset="1" stop-color="#F7DD43" stop-opacity="0"/>
</linearGradient>
<linearGradient id="paint92_linear_122_130" x1="837.297" y1="189.134" x2="837.297" y2="386.745" gradientUnits="userSpaceOnUse">
<stop stop-color="#F7DD43"/>
<stop offset="1" stop-color="#F7DD43" stop-opacity="0"/>
</linearGradient>
<linearGradient id="paint93_linear_122_130" x1="837.297" y1="189.134" x2="837.297" y2="386.745" gradientUnits="userSpaceOnUse">
<stop stop-color="#F7DD43"/>
<stop offset="1" stop-color="#F7DD43" stop-opacity="0"/>
</linearGradient>
<clipPath id="clip0_122_130">
<rect width="1024" height="753" fill="white"/>
</clipPath>
</defs>
</svg>
